<?xml version="1.0" encoding="utf-8"?>
<svg xmlns="http://www.w3.org/2000/svg" viewBox="0 0 50 50" width="500" height="500">
  <path d="M25 0.0390625C22.84 0.0390625 20.799531 0.88015625 19.269531 2.4101562L9.6796875 12L12.929688 12C14.529687 12 16.039922 12.619766 17.169922 13.759766L23.939453 20.529297C24.519453 21.109297 25.480547 21.109531 26.060547 20.519531L32.830078 13.759766C33.960078 12.619766 35.470312 12 37.070312 12L40.320312 12L30.730469 2.4101562C29.200469 0.88015625 27.16 0.0390625 25 0.0390625 z M 7.6796875 14L2.4101562 19.269531C-0.74984375 22.429531 -0.74984375 27.570469 2.4101562 30.730469L7.6796875 36L12.929688 36C13.999687 36 14.999766 35.580078 15.759766 34.830078L22.529297 28.060547C23.889297 26.700547 26.110703 26.700547 27.470703 28.060547L34.240234 34.830078C35.000234 35.580078 36.000312 36 37.070312 36L42.320312 36L47.589844 30.730469C50.749844 27.570469 50.749844 22.429531 47.589844 19.269531L42.320312 14L37.070312 14C36.000313 14 35.000234 14.419922 34.240234 15.169922L27.470703 21.939453C26.790703 22.619453 25.9 22.960938 25 22.960938C24.1 22.960937 23.209297 22.619453 22.529297 21.939453L15.759766 15.169922C14.999766 14.419922 13.999688 14 12.929688 14L7.6796875 14 z M 25 29.037109C24.615 29.038359 24.229453 29.185469 23.939453 29.480469L17.169922 36.240234C16.039922 37.380234 14.529687 38 12.929688 38L9.6796875 38L19.269531 47.589844C20.799531 49.119844 22.84 49.960938 25 49.960938C27.16 49.960938 29.200469 49.119844 30.730469 47.589844L40.320312 38L37.070312 38C35.470313 38 33.960078 37.380234 32.830078 36.240234L26.060547 29.470703C25.770547 29.180703 25.385 29.035859 25 29.037109 z" fill="#FFFFFF" />
</svg>