<?xml version="1.0" encoding="UTF-8"?>
<svg version="1.1" xmlns="http://www.w3.org/2000/svg" width="500" height="500">
<path d="M0 0 C1.22343432 -0.00226556 2.44686863 -0.00453111 3.70737672 -0.00686532 C7.08662439 -0.01208489 10.46581867 -0.01285289 13.84506655 -0.01167095 C17.49618183 -0.01146626 21.14728928 -0.01699215 24.79840088 -0.02172852 C31.94550872 -0.03002104 39.09260831 -0.03278273 46.23972055 -0.03334089 C52.05178521 -0.03381673 57.86384715 -0.03587483 63.67591095 -0.03904152 C80.16911771 -0.04784435 96.66231796 -0.05246149 113.15552709 -0.05171105 C114.04394985 -0.05167109 114.93237262 -0.05163113 115.84771729 -0.05158997 C117.18198633 -0.05152864 117.18198633 -0.05152864 118.5432103 -0.05146609 C132.95496015 -0.05105974 147.36668385 -0.06062732 161.77842614 -0.07472833 C176.59094176 -0.08910664 191.40344464 -0.09599771 206.21596742 -0.09513456 C214.52616877 -0.09480308 222.83634273 -0.09752829 231.14653778 -0.10831261 C238.22256389 -0.11743677 245.29855018 -0.11957716 252.37457964 -0.11280318 C255.9811243 -0.10954761 259.58759263 -0.10944631 263.19412994 -0.11815643 C267.11317886 -0.12752351 271.03211747 -0.12122029 274.95117188 -0.11352539 C276.07804531 -0.11866895 277.20491874 -0.12381252 278.36593986 -0.12911195 C298.46308189 -0.04224673 314.62081292 5.99789035 329.37408447 19.65324402 C340.55952031 31.4322685 346.061211 46.77988215 345.99024963 62.79101562 C345.99407518 63.7212886 345.99790073 64.65156157 346.0018422 65.61002463 C346.01210198 68.7049748 346.00819344 71.799737 346.00421143 74.8946991 C346.00856181 77.12283499 346.01374605 79.35096938 346.0196991 81.57910156 C346.03306584 87.6163888 346.03367029 93.65361334 346.0311358 99.69091249 C346.03006441 104.73793975 346.0349538 109.78495442 346.03974122 114.83197898 C346.05146196 127.42362531 346.05061594 140.01523338 346.04418441 152.60687914 C346.03901793 163.52019903 346.05026617 174.43342959 346.06928263 185.34673182 C346.08869644 196.57488464 346.09661989 207.80299644 346.09315938 219.03117007 C346.09134963 225.32593479 346.09395192 231.62061771 346.10787392 237.91536903 C346.12048211 243.83748362 346.11847975 249.75941994 346.10546303 255.68153191 C346.10310414 257.84861436 346.10580713 260.01570948 346.11408615 262.1827774 C346.18996053 283.59585599 342.71631862 300.91903308 327.29205322 316.76652527 C312.50778853 330.42394052 295.02217702 334.29409881 275.45910645 334.26742554 C274.23567213 334.26969109 273.01223781 334.27195665 271.75172973 334.27429086 C268.37248206 334.27951043 264.99328778 334.28027842 261.6140399 334.27909648 C257.96292461 334.2788918 254.31181717 334.28441769 250.66070557 334.28915405 C243.51359773 334.29744658 236.36649814 334.30020826 229.21938589 334.30076643 C223.40732124 334.30124226 217.59525929 334.30330037 211.7831955 334.30646706 C195.28998874 334.31526989 178.79678848 334.31988702 162.30357936 334.31913658 C161.41515659 334.31909663 160.52673383 334.31905667 159.61138916 334.3190155 C158.27712012 334.31895418 158.27712012 334.31895418 156.91589615 334.31889162 C142.5041463 334.31848528 128.09242259 334.32805286 113.6806803 334.34215387 C98.86816468 334.35653217 84.0556618 334.36342325 69.24313903 334.36256009 C60.93293767 334.36222862 52.62276372 334.36495383 44.31256866 334.37573814 C37.23654255 334.3848623 30.16055627 334.3870027 23.08452681 334.38022872 C19.47798214 334.37697314 15.87151381 334.37687185 12.2649765 334.38558197 C8.34592758 334.39494905 4.42698898 334.38864583 0.50793457 334.38095093 C-1.18237558 334.38866627 -1.18237558 334.38866627 -2.90683341 334.39653748 C-22.09911983 334.31358329 -38.70086077 328.87070488 -52.87591553 315.71574402 C-64.3459566 303.63089338 -70.42746488 288.49354624 -70.41088867 271.95742798 C-70.41385979 271.03057271 -70.41683092 270.10371743 -70.41989207 269.14877564 C-70.42856703 266.04145061 -70.43008632 262.93416417 -70.43157959 259.826828 C-70.43620869 257.59928302 -70.44123348 255.37173883 -70.44662476 253.14419556 C-70.45974374 247.09016027 -70.466193 241.03613608 -70.47063541 234.9820888 C-70.47356756 231.19775478 -70.47767268 227.41342377 -70.48213959 223.62909126 C-70.49424804 213.14015456 -70.50462967 202.65121965 -70.50801468 192.16227627 C-70.50823425 191.49135525 -70.50845381 190.82043424 -70.50868003 190.12918228 C-70.50889831 189.45670015 -70.50911659 188.78421802 -70.50934148 188.09135765 C-70.50978494 186.72876704 -70.5102315 185.36617643 -70.51068115 184.00358582 C-70.51090258 183.32770088 -70.51112401 182.65181595 -70.51135215 181.95544965 C-70.51529592 171.01601416 -70.5327376 160.07664547 -70.55604067 149.13723575 C-70.57980249 137.89113503 -70.59196123 126.64506657 -70.5933826 115.39893681 C-70.59442921 109.09069121 -70.60030642 102.78253978 -70.61820221 96.47431755 C-70.634721 90.53585084 -70.63681983 84.5975487 -70.6280632 78.65906715 C-70.62729481 76.48553399 -70.63160927 74.31199184 -70.64152145 72.13848114 C-70.73521257 50.30466129 -67.1028665 33.42914235 -51.40325928 17.20402527 C-36.75366012 3.52701361 -19.35157456 -0.02638491 0 0 Z M-25.27044678 50.13371277 C-31.11973515 59.17756303 -29.83281007 70.46235669 -29.7880249 80.75480652 C-29.79345071 82.84840887 -29.80057594 84.9420074 -29.80926514 87.03559875 C-29.82744666 92.70088246 -29.82045223 98.36587367 -29.80774879 104.03116226 C-29.79759436 109.97087113 -29.80702126 115.91055561 -29.81329346 121.8502655 C-29.82056273 131.82337421 -29.81100099 141.79636428 -29.79193115 151.76945496 C-29.77016389 163.2859482 -29.77721576 174.80215814 -29.79923677 186.31864452 C-29.81741122 196.22128054 -29.81993907 206.12383146 -29.8094821 216.02647877 C-29.80325845 221.93441217 -29.80238055 227.84221257 -29.81562805 233.75013733 C-29.82721562 239.30544619 -29.81910749 244.86039115 -29.79605103 250.41566086 C-29.79077949 252.44973523 -29.79225094 254.48384043 -29.80110168 256.51790237 C-30.35773385 272.32866441 -30.35773385 272.32866441 -23.54981232 286.04534912 C-16.74929984 292.57455113 -9.15921903 292.42395755 -0.2068634 292.39440918 C1.63101654 292.4001475 1.63101654 292.4001475 3.50602537 292.40600175 C6.89950149 292.41452847 10.29276068 292.41410061 13.68623054 292.40982115 C17.34888146 292.4073535 21.01150696 292.41636855 24.67414856 292.42385864 C31.84659793 292.43660634 39.01900986 292.43839927 46.19146865 292.43605838 C52.02126637 292.43427523 57.85105272 292.4360248 63.68084908 292.44028282 C64.92551063 292.44117561 64.92551063 292.44117561 66.19531687 292.44208642 C67.88100755 292.44329818 69.56669823 292.44451231 71.2523889 292.4457288 C87.05972974 292.4566045 102.86704924 292.45444164 118.67439128 292.44834395 C133.13492744 292.44317412 147.59539626 292.45443194 162.0559191 292.47344217 C176.90564219 292.49281436 191.75533341 292.5010777 206.60506922 292.49731892 C214.94142121 292.49540602 223.27771586 292.49790316 231.61405754 292.51203346 C238.7104222 292.5239403 245.80669422 292.52535996 252.90306013 292.5132433 C256.5231806 292.50734984 260.14313158 292.50626798 263.76324081 292.5182457 C267.6885735 292.53108233 271.61364867 292.52065116 275.53898621 292.50793457 C276.68178809 292.51530886 277.82458997 292.52268314 279.00202221 292.53028089 C287.03029055 292.47545431 293.19710235 291.35100685 299.38830948 285.73715782 C305.8105231 278.05945814 305.28132918 268.10559453 305.18365479 258.67814636 C305.1825245 257.13974538 305.18316369 255.60134224 305.1854248 254.0629425 C305.18656584 249.91471427 305.16315647 245.76695488 305.13512897 241.61883497 C305.11001264 237.27336515 305.10776529 232.9278829 305.10302734 228.58235168 C305.09062749 220.36607738 305.05784666 212.15001764 305.01762938 203.93383753 C304.97281824 194.57468469 304.9509012 185.21552125 304.93084764 175.85628772 C304.88911115 156.61530806 304.81881767 137.37452771 304.72955322 118.13371277 C303.98632624 118.13040262 303.24309925 118.12709248 302.47735023 118.12368202 C284.36468906 118.04234176 266.25211189 117.95021343 248.13956642 117.84618568 C239.38035439 117.79613613 230.62115136 117.74969252 221.86187744 117.71183777 C214.22428468 117.6788213 206.58676336 117.63893722 198.94924963 117.59092271 C194.90798931 117.5657534 190.8667758 117.54394427 186.82545853 117.5303688 C183.01530235 117.51746109 179.20530751 117.4953145 175.39524078 117.46632957 C174.0029844 117.45732141 172.61070209 117.45157953 171.21841812 117.44949913 C151.48367001 117.41475465 151.48367001 117.41475465 143.47955322 112.44621277 C142.71127197 111.98859558 141.94299072 111.53097839 141.15142822 111.05949402 C133.58241072 105.04090429 130.7543411 98.06081541 127.54205322 89.07121277 C127.07679996 87.80410334 126.61013874 86.53751008 126.14215088 85.27140808 C124.9097891 81.92653807 123.69535366 78.57544411 122.48510742 75.22251892 C120.9490231 70.97585815 119.39437876 66.73595699 117.84089661 62.49563599 C116.61122199 59.13880792 115.38529232 55.78077195 114.17022705 52.41862488 C113.73347656 51.21601013 113.29672607 50.01339539 112.84674072 48.77433777 C112.4611499 47.70731628 112.07555908 46.6402948 111.67828369 45.54093933 C110.94806108 43.21935909 110.94806108 43.21935909 109.72955322 42.13371277 C108.16395437 42.03128259 106.59374807 41.99851679 105.02481079 41.99327087 C103.49813278 41.98470566 103.49813278 41.98470566 101.94061279 41.97596741 C100.81441528 41.97484955 99.68821777 41.97373169 98.52789307 41.97257996 C97.34905548 41.96761505 96.1702179 41.96265015 94.95565796 41.95753479 C91.71154314 41.94539865 88.46746442 41.93796 85.22333097 41.93352413 C83.19589807 41.93059558 81.16847085 41.92649103 79.1410408 41.92201996 C72.79626884 41.90833383 66.45150985 41.89867451 60.10672414 41.89481807 C52.78625709 41.89034428 45.4659774 41.8728329 38.1455673 41.84381747 C32.48688196 41.82216915 26.82824918 41.81211199 21.16952288 41.81077695 C17.79060906 41.80973051 14.4118711 41.80385828 11.03300095 41.78595734 C7.25771696 41.76889588 3.48288751 41.77077809 -0.29241943 41.77726746 C-1.40647156 41.76805267 -2.52052368 41.75883789 -3.66833496 41.74934387 C-12.17869527 41.79514971 -19.46251601 43.27649037 -25.27044678 50.13371277 Z " fill="#FFFFFF" transform="translate(112.27044677734375,82.86628723144531)"/>
</svg>
