<?xml version="1.0" standalone="no"?>
<!DOCTYPE svg PUBLIC "-//W3C//DTD SVG 20010904//EN"
 "http://www.w3.org/TR/2001/REC-SVG-20010904/DTD/svg10.dtd">
<svg version="1.0" xmlns="http://www.w3.org/2000/svg"
 width="735.000000pt" height="677.000000pt" viewBox="0 0 735.000000 677.000000"
 preserveAspectRatio="xMidYMid meet">

<g transform="translate(0.000000,677.000000) scale(0.100000,-0.100000)"
fill="#000000" stroke="none">
<path d="M1970 5063 c-66 -8 -195 -53 -260 -90 -74 -44 -181 -146 -228 -217
-37 -57 -70 -141 -83 -212 -6 -31 -8 -511 -7 -1205 l3 -1154 23 -57 c84 -217
258 -366 492 -424 72 -18 150 -19 1765 -19 1599 0 1694 1 1773 18 102 23 157
46 245 105 129 86 229 223 268 367 12 41 14 262 14 1210 l0 1160 -23 66 c-72
208 -226 353 -457 430 l-70 24 -1710 1 c-940 0 -1726 -1 -1745 -3z m1529 -713
c116 -294 117 -295 176 -356 43 -43 77 -68 120 -85 l60 -24 835 -5 835 -5 3
-790 c2 -873 4 -850 -61 -913 -17 -17 -52 -40 -77 -51 -45 -20 -57 -21 -1708
-21 -1836 0 -1700 -5 -1770 63 -19 18 -42 49 -53 69 -18 36 -19 74 -19 1146 0
1083 0 1109 20 1149 20 41 78 95 121 112 15 6 294 9 713 8 l688 -2 117 -295z"/>
</g>
</svg>
