<?xml version="1.0" encoding="UTF-8"?>
<svg xmlns="http://www.w3.org/2000/svg" xmlns:xlink="http://www.w3.org/1999/xlink" width="1000px" height="1000px" viewBox="0 0 1000 1000" version="1.1">
<g id="surface1">
<path style=" stroke:none;fill-rule:evenodd;fill:rgb(17.254902%,17.254902%,18.039216%);fill-opacity:1;" d="M 1000 500 C 1000 223.859375 776.140625 0 500 0 C 223.859375 0 0 223.859375 0 500 C 0 776.140625 223.859375 1000 500 1000 C 776.140625 1000 1000 776.140625 1000 500 Z M 1000 500 "/>
<path style=" stroke:none;fill-rule:nonzero;fill:rgb(100%,100%,100%);fill-opacity:1;" d="M 435.679688 406.160156 L 435.679688 330 C 435.664062 307.636719 425.105469 286.589844 407.183594 273.214844 C 389.265625 259.835938 366.082031 255.695312 344.640625 262.039062 L 246.339844 290.878906 C 216.152344 299.714844 195.402344 327.386719 195.378906 358.839844 L 195.378906 642.339844 C 195.402344 673.792969 216.152344 701.46875 246.339844 710.300781 L 344.640625 739.160156 C 366.082031 745.460938 389.234375 741.300781 407.144531 727.933594 C 425.050781 714.5625 435.625 693.546875 435.679688 671.199219 L 435.679688 604.960938 C 435.679688 583.71875 446.941406 564.058594 465.28125 553.28125 L 564.820312 494.878906 C 599.828125 474.355469 621.34375 436.820312 621.359375 396.238281 L 621.359375 330 C 621.363281 324.839844 623.796875 319.984375 627.933594 316.898438 C 632.066406 313.8125 637.414062 312.855469 642.359375 314.320312 L 740.660156 343.160156 C 747.625 345.199219 752.410156 351.582031 752.421875 358.839844 L 752.421875 642.339844 C 752.421875 649.601562 747.621094 655.980469 740.660156 658.039062 L 642.359375 686.878906 C 637.414062 688.324219 632.078125 687.363281 627.949219 684.28125 C 623.820312 681.195312 621.378906 676.351562 621.359375 671.199219 L 621.359375 573.199219 C 621.359375 558.160156 607.160156 548.980469 594.039062 556.859375 C 580.960938 564.738281 566.738281 579.960938 566.738281 595 L 566.738281 671.179688 C 566.796875 693.523438 577.367188 714.535156 595.269531 727.902344 C 613.171875 741.269531 636.320312 745.433594 657.761719 739.140625 L 756.078125 710.28125 C 786.265625 701.445312 807.019531 673.773438 807.039062 642.320312 L 807.039062 358.839844 C 807.019531 327.386719 786.265625 299.714844 756.078125 290.878906 L 657.761719 262.039062 C 636.320312 255.703125 613.144531 259.847656 595.230469 273.226562 C 577.316406 286.601562 566.757812 307.640625 566.738281 330 L 566.738281 396.238281 C 566.730469 417.492188 555.46875 437.148438 537.140625 447.898438 L 437.601562 506.300781 C 402.585938 526.828125 381.070312 564.371094 381.058594 604.960938 L 381.058594 671.199219 C 381.039062 676.351562 378.601562 681.195312 374.472656 684.28125 C 370.34375 687.363281 365.003906 688.324219 360.058594 686.878906 L 261.761719 658.039062 C 254.789062 655.996094 250 649.605469 250 642.339844 L 250 358.839844 C 250 351.578125 254.800781 345.199219 261.761719 343.160156 L 360.058594 314.320312 C 365.003906 312.875 370.34375 313.835938 374.472656 316.921875 C 378.601562 320.003906 381.039062 324.847656 381.058594 330 L 381.058594 427.960938 C 381.058594 443 394.421875 449.960938 408.359375 444.300781 C 422.320312 438.660156 435.679688 421.21875 435.679688 406.160156 Z M 435.679688 406.160156 "/>
</g>
</svg>
